<?xml version="1.0" encoding="UTF-8"?>
<!DOCTYPE svg PUBLIC "-//W3C//DTD SVG 1.1//EN" "http://www.w3.org/Graphics/SVG/1.1/DTD/svg11.dtd">
<!-- Creator: CorelDRAW -->
<?xml-stylesheet href="logo.css" type="text/css"?>
<svg xmlns="http://www.w3.org/2000/svg" xml:space="preserve" width="50px" height="50px" version="1.1" style="shape-rendering:geometricPrecision; text-rendering:geometricPrecision; image-rendering:optimizeQuality; fill-rule:evenodd; clip-rule:evenodd"
viewBox="0 0 2173 2480.05"
 xmlns:xlink="http://www.w3.org/1999/xlink"
 xmlns:xodm="http://www.corel.com/coreldraw/odm/2003">
 <g id="Layer_x0020_1">
  <metadata id="CorelCorpID_0Corel-Layer"/>
  <g id="_1563222167312">
   <g id="_2651767378976">
    <polygon class="fil0" points="27.66,23.07 27.32,2455.65 349.37,2455.65 349.37,317.72 2155.24,317.72 2155.24,23.07 "/>
    <path class="fil0" d="M643.48 918.02l0 -315.55 705.34 0c177.21,0 306.16,16.83 386.44,50.03 80.7,33.23 144.81,92.33 193.04,177.3 48.27,85.42 72.6,182.47 72.6,292.05 0,139.34 -36.31,254.1 -109.27,344.68 -72.97,90.59 -181.83,147.54 -326.99,171.27 72.19,47.01 131.64,98.79 178.37,155.28 47.11,56.52 110.4,157.04 189.95,301.13l202.29 361.49 -400.35 0 -240.15 -404.64c-86.1,-143.67 -145.13,-234.24 -177.18,-271.77 -31.66,-37.09 -65.26,-62.99 -100.78,-76.78 -35.92,-13.82 -92.26,-20.72 -169.48,-20.72l-67.95 0 0 773.91 -335.88 0 0.98 -1071.46 580.05 -2.61c160.57,-0.72 263.35,-2.68 303.46,-17.78 39.72,-14.97 71.41,-41.4 93.82,-78.5 22.78,-37.09 33.96,-83.69 33.96,-139.33 0,-62.56 -15.06,-112.58 -44.79,-151.42 -29.72,-38.39 -71.81,-62.57 -125.87,-72.48 -27.39,-4.31 -108.85,-6.46 -244.34,-6.46l-261.39 0 -335.88 2.36 0 0 0 0z"/>
   </g>
  </g>
 </g>
</svg>
