<?xml version="1.0" encoding="UTF-8"?>
<!DOCTYPE svg PUBLIC "-//W3C//DTD SVG 1.1//EN" "http://www.w3.org/Graphics/SVG/1.1/DTD/svg11.dtd">
<!-- Creator: CorelDRAW -->
<?xml-stylesheet href="R_logo.css" type="text/css"?>
<svg xmlns="http://www.w3.org/2000/svg" xml:space="preserve" width="400px" height="500px" version="1.1" style="shape-rendering:geometricPrecision; text-rendering:geometricPrecision; image-rendering:optimizeQuality; fill-rule:evenodd; clip-rule:evenodd"
viewBox="0 0 400 500"
 xmlns:xlink="http://www.w3.org/1999/xlink"
 xmlns:xodm="http://www.corel.com/coreldraw/odm/2003">
 <g id="Layer_x0020_1">
  <metadata id="CorelCorpID_0Corel-Layer"/>
  <path class="fil0" d="M6 89.97l0 -82.7 184.87 0c46.44,0 80.24,4.41 101.28,13.11 21.16,8.71 37.96,24.2 50.6,46.47 12.65,22.39 19.03,47.83 19.03,76.55 0,36.52 -9.52,66.6 -28.64,90.34 -19.13,23.74 -47.66,38.67 -85.7,44.89 18.92,12.32 34.5,25.89 46.75,40.7 12.34,14.81 28.93,41.16 49.78,78.92l53.02 94.75 -104.93 0 -62.94 -106.05c-22.57,-37.66 -38.04,-61.4 -46.44,-71.23 -8.3,-9.72 -17.1,-16.51 -26.42,-20.13 -9.41,-3.62 -24.17,-5.43 -44.41,-5.43l-17.82 0 0 202.84 -88.03 0 0.26 -280.83 152.02 -0.68c42.09,-0.19 69.03,-0.7 79.54,-4.66 10.41,-3.92 18.71,-10.85 24.59,-20.57 5.97,-9.72 8.91,-21.93 8.91,-36.52 0,-16.39 -3.95,-29.5 -11.74,-39.68 -7.79,-10.07 -18.83,-16.4 -32.99,-19 -7.18,-1.13 -28.53,-1.69 -64.05,-1.69l-68.51 0 -88.03 0.61 0 0 0 0 0 -0.01z"/>
 </g>
</svg>
