<?xml version="1.0" encoding="UTF-8"?>
<!DOCTYPE svg PUBLIC "-//W3C//DTD SVG 1.1//EN" "http://www.w3.org/Graphics/SVG/1.1/DTD/svg11.dtd">
<!-- Creator: CorelDRAW -->
<?xml-stylesheet href="plus.css" type="text/css"?>
<svg xmlns="http://www.w3.org/2000/svg" xml:space="preserve" width="50px" height="50px" version="1.1" style="shape-rendering:geometricPrecision; text-rendering:geometricPrecision; image-rendering:optimizeQuality; fill-rule:evenodd; clip-rule:evenodd"
viewBox="0 0 50 50"
 xmlns:xlink="http://www.w3.org/1999/xlink"
 xmlns:xodm="http://www.corel.com/coreldraw/odm/2003">
 <g id="Layer_x0020_1">
  <metadata id="CorelCorpID_0Corel-Layer"/>
  <path class="fil0" d="M47 25.09c0,0.66 -0.05,1.22 -0.16,1.67 -0.08,0.46 -0.22,0.84 -0.4,1.15 -0.17,0.32 -0.36,0.53 -0.61,0.67 -0.24,0.14 -0.49,0.21 -0.77,0.21l-16.77 0 0 18.57c0,0.28 -0.07,0.51 -0.21,0.7 -0.14,0.19 -0.35,0.35 -0.63,0.49 -0.3,0.12 -0.68,0.24 -1.15,0.33 -0.49,0.09 -1.08,0.12 -1.8,0.12 -0.68,0 -1.27,-0.03 -1.76,-0.12 -0.49,-0.09 -0.89,-0.21 -1.17,-0.33 -0.3,-0.14 -0.51,-0.3 -0.65,-0.49 -0.14,-0.19 -0.21,-0.42 -0.21,-0.7l0 -18.57 -16.77 0c-0.3,0 -0.56,-0.07 -0.79,-0.21 -0.23,-0.14 -0.42,-0.35 -0.59,-0.67 -0.16,-0.31 -0.3,-0.69 -0.4,-1.15 -0.11,-0.45 -0.16,-1.01 -0.16,-1.67 0,-0.61 0.05,-1.16 0.16,-1.61 0.1,-0.45 0.24,-0.84 0.4,-1.15 0.17,-0.32 0.36,-0.52 0.59,-0.67 0.23,-0.13 0.47,-0.2 0.75,-0.2l16.81 0 0 -18.63c0,-0.28 0.07,-0.52 0.21,-0.75 0.14,-0.23 0.35,-0.4 0.65,-0.56 0.28,-0.16 0.68,-0.28 1.17,-0.37 0.49,-0.08 1.08,-0.12 1.76,-0.12 0.72,0 1.31,0.04 1.8,0.12 0.47,0.09 0.85,0.21 1.15,0.37 0.28,0.16 0.49,0.33 0.63,0.56 0.14,0.23 0.21,0.47 0.21,0.75l0 18.63 16.83 0c0.26,0 0.52,0.07 0.73,0.2 0.23,0.15 0.44,0.35 0.61,0.67 0.19,0.31 0.33,0.7 0.42,1.15 0.09,0.45 0.12,1 0.12,1.61z"/>
 </g>
</svg>
