<?xml version="1.0" encoding="UTF-8"?>
<!DOCTYPE svg PUBLIC "-//W3C//DTD SVG 1.1//EN" "http://www.w3.org/Graphics/SVG/1.1/DTD/svg11.dtd">
<!-- Creator: CorelDRAW -->
<svg xmlns="http://www.w3.org/2000/svg" xml:space="preserve" width="407px" height="312px" version="1.1" style="shape-rendering:geometricPrecision; text-rendering:geometricPrecision; image-rendering:optimizeQuality; fill-rule:evenodd; clip-rule:evenodd"
viewBox="0 0 407 311.999"
 xmlns:xlink="http://www.w3.org/1999/xlink"
 xmlns:xodm="http://www.corel.com/coreldraw/odm/2003">
 <defs>
  <style type="text/css">
   <![CDATA[
    .fil0 {fill:black}
    .fil1 {fill:white}
   ]]>
  </style>
 </defs>
<symbol id="a" viewBox="-45.145 -111.483 18.347 17.945">
 <path class="fil0" d="M-26.798 -102.578l0 1.563 -12.779 0c0.134,1.28 0.595,2.24 1.384,2.879 0.795,0.642 1.908,0.96 3.337,0.96 1.144,0 2.321,-0.168 3.527,-0.503 1.205,-0.34 2.444,-0.859 3.716,-1.551l0 4.208c-1.289,0.491 -2.578,0.859 -3.872,1.105 -1.295,0.25 -2.587,0.379 -3.873,0.379 -3.097,0 -5.502,-0.784 -7.22,-2.355 -1.713,-1.576 -2.567,-3.783 -2.567,-6.618 0,-2.79 0.84,-4.98 2.522,-6.573 1.688,-1.599 4.006,-2.399 6.953,-2.399 2.684,0 4.835,0.812 6.45,2.433 1.613,1.615 2.422,3.772 2.422,6.472zm-5.614 -1.807c0,-1.041 -0.307,-1.878 -0.915,-2.511 -0.602,-0.639 -1.392,-0.96 -2.366,-0.96 -1.066,0 -1.928,0.299 -2.589,0.893 -0.655,0.597 -1.066,1.456 -1.227,2.578l7.097 0z"/>
</symbol>
<symbol id="g" viewBox="-46.071 -115.925 13.805 21.941">
 <path class="fil0" d="M-37.891 -115.925l0 4.854 5.625 0 0 3.907 -5.625 0 0 7.243c0,0.798 0.156,1.336 0.469,1.618 0.312,0.276 0.937,0.413 1.875,0.413l2.812 0 0 3.906 -4.687 0c-2.16,0 -3.689,-0.449 -4.587,-1.351 -0.901,-0.898 -1.351,-2.427 -1.351,-4.587l0 -7.243 -2.711 0.001 0 -3.907 2.711 0 0 -4.854 5.469 0z"/>
</symbol>
<symbol id="h" viewBox="-45.144 -111.484 17.287 17.946">
 <path class="fil0" d="M-36.205 -101.674c-1.139,0 -1.995,0.196 -2.567,0.58 -0.575,0.388 -0.859,0.957 -0.859,1.708 0,0.692 0.228,1.236 0.692,1.629 0.46,0.388 1.104,0.58 1.93,0.58 1.027,0 1.889,-0.368 2.589,-1.104 0.706,-0.737 1.06,-1.658 1.06,-2.768l0 -0.625 -2.845 0zm8.348 -2.065l0 9.754 -5.502 0 0 -2.533c-0.737,1.035 -1.563,1.791 -2.478,2.265 -0.915,0.475 -2.028,0.715 -3.337,0.715 -1.772,0 -3.211,-0.517 -4.319,-1.552 -1.102,-1.032 -1.651,-2.371 -1.651,-4.017 0,-2.009 0.686,-3.477 2.065,-4.408 1.383,-0.938 3.549,-1.407 6.495,-1.407l3.225 0 0 -0.435c0,-0.862 -0.343,-1.496 -1.027,-1.897 -0.678,-0.402 -1.741,-0.603 -3.192,-0.603 -1.169,0 -2.254,0.12 -3.259,0.357 -1.004,0.232 -1.942,0.581 -2.812,1.05l0 -4.163c1.175,-0.29 2.349,-0.505 3.527,-0.648 1.183,-0.147 2.36,-0.223 3.537,-0.223 3.086,0 5.312,0.611 6.674,1.83 1.367,1.214 2.054,3.187 2.054,5.915l0 0z"/>
</symbol>
<symbol id="j" viewBox="-43.861 -117.722 5.468 23.737">
 <path class="fil0" d="M-43.861 -111.071l5.468 0 0 17.087 -5.468 0 0 -17.087zm0 -6.651l5.468 0 0 4.453 -5.468 0 0 -4.453z"/>
</symbol>
<symbol id="b" viewBox="-43.861 -117.721 18.749 23.738">
 <polygon class="fil0" points="-43.861,-117.721 -38.393,-117.721 -38.393,-104.798 -32.11,-111.07 -25.76,-111.07 -34.108,-103.235 -25.113,-93.984 -31.731,-93.984 -38.393,-101.104 -38.393,-93.984 -43.861,-93.984 "/>
</symbol>
<symbol id="k" viewBox="-43.862 -111.483 17.187 17.499">
 <path class="fil0" d="M-26.675 -104.385l0 10.401 -5.502 0 0 -7.968c0,-1.474 -0.034,-2.489 -0.101,-3.047 -0.061,-0.558 -0.173,-0.971 -0.334,-1.239 -0.218,-0.357 -0.508,-0.63 -0.871,-0.826 -0.365,-0.201 -0.781,-0.301 -1.25,-0.301 -1.138,0 -2.037,0.441 -2.689,1.317 -0.648,0.878 -0.971,2.098 -0.971,3.66l0 8.404 -5.469 0 0 -17.086 5.469 0 0 2.5c0.817,-0.996 1.688,-1.73 2.611,-2.199 0.929,-0.474 1.956,-0.714 3.08,-0.714 1.97,0 3.465,0.608 4.487,1.819 1.027,1.206 1.54,2.966 1.54,5.279z"/>
</symbol>
<symbol id="l" viewBox="-45.145 -111.483 18.782 17.945">
 <path class="fil0" d="M-35.726 -107.577c-1.214,0 -2.14,0.435 -2.779,1.306 -0.633,0.87 -0.948,2.126 -0.948,3.761 0,1.637 0.315,2.89 0.948,3.761 0.639,0.87 1.565,1.306 2.779,1.306 1.189,0 2.098,-0.436 2.723,-1.306 0.631,-0.871 0.949,-2.124 0.949,-3.761 0,-1.635 -0.318,-2.891 -0.949,-3.761 -0.625,-0.871 -1.534,-1.306 -2.723,-1.306zm0 -3.906c2.938,0 5.234,0.792 6.886,2.377 1.651,1.584 2.477,3.783 2.477,6.595 0,2.807 -0.826,5.006 -2.477,6.596 -1.652,1.585 -3.948,2.377 -6.886,2.377 -2.954,0 -5.265,-0.792 -6.931,-2.377 -1.659,-1.59 -2.488,-3.789 -2.488,-6.596 0,-2.812 0.828,-5.011 2.488,-6.595 1.666,-1.585 3.976,-2.377 6.931,-2.377z"/>
</symbol>
<symbol id="d" viewBox="-46.105 -111.071 19.429 23.827">
 <path class="fil0" d="M-46.105 -111.071l5.469 0 4.586 11.595 3.907 -11.595 5.468 0 -7.187 18.705c-0.723,1.903 -1.568,3.231 -2.533,3.984 -0.96,0.759 -2.23,1.138 -3.806,1.138l-3.158 0 0 -3.582 1.707 0c0.929,0 1.602,-0.151 2.02,-0.446 0.424,-0.29 0.754,-0.82 0.994,-1.585l0.145 -0.469 -7.612 -17.745z"/>
</symbol>
<symbol id="c" viewBox="-43.895 -111.484 27.498 17.5">
 <path class="fil0" d="M-28.025 -108.235c0.692,-1.055 1.512,-1.858 2.466,-2.411 0.952,-0.558 1.998,-0.837 3.136,-0.837 1.964,0 3.46,0.608 4.486,1.819 1.027,1.205 1.541,2.966 1.541,5.278l0 10.401 -5.491 0 0 -8.905c0.005,-0.134 0.014,-0.271 0.022,-0.414 0.006,-0.139 0.011,-0.345 0.011,-0.613 0,-1.211 -0.178,-2.09 -0.535,-2.634 -0.357,-0.541 -0.935,-0.814 -1.73,-0.814 -1.035,0 -1.836,0.429 -2.399,1.283 -0.567,0.857 -0.86,2.092 -0.882,3.705l0 8.393 -5.491 -0.001 0 -8.905c0,-1.898 -0.165,-3.117 -0.491,-3.661 -0.321,-0.541 -0.898,-0.814 -1.73,-0.814 -1.049,0 -1.861,0.432 -2.433,1.294 -0.566,0.856 -0.848,2.084 -0.848,3.683l0 8.404 -5.502 -0.001 0 -17.086 5.502 0 0 2.5c0.67,-0.965 1.44,-1.691 2.31,-2.176 0.871,-0.491 1.825,-0.737 2.869,-0.737 1.182,0 2.223,0.287 3.124,0.859 0.907,0.567 1.596,1.362 2.065,2.389l0 0.001z"/>
</symbol>
<symbol id="e" viewBox="-43.861 -117.721 18.347 24.183">
 <path class="fil0" d="M-34.766 -97.511c1.166,0 2.059,-0.427 2.678,-1.284 0.617,-0.853 0.927,-2.092 0.927,-3.716 0,-1.629 -0.31,-2.871 -0.927,-3.727 -0.619,-0.854 -1.512,-1.284 -2.678,-1.284 -1.169,0 -2.065,0.432 -2.69,1.295 -0.625,0.856 -0.937,2.095 -0.937,3.716 0,1.615 0.312,2.854 0.937,3.716 0.625,0.857 1.521,1.284 2.69,1.284zm-3.627 -11.059c0.75,-0.996 1.585,-1.73 2.5,-2.199 0.915,-0.474 1.966,-0.714 3.158,-0.714 2.103,0 3.833,0.837 5.189,2.511 1.353,1.674 2.031,3.828 2.031,6.461 0,2.634 -0.678,4.788 -2.031,6.462 -1.356,1.674 -3.086,2.511 -5.189,2.511 -1.192,0 -2.243,-0.24 -3.158,-0.714 -0.915,-0.475 -1.75,-1.208 -2.5,-2.199l0 2.467 -5.468 0 0 -23.737 5.468 0 0 9.151z"/>
</symbol>
<symbol id="f" viewBox="-45.078 -117.722 18.336 24.184">
 <path class="fil0" d="M-32.233 -108.571l0 -9.151 5.491 0.001 0 23.737 -5.491 0 0 -2.467c-0.753,1.004 -1.582,1.741 -2.489,2.21 -0.909,0.469 -1.958,0.703 -3.147,0.703 -2.106,0 -3.836,-0.837 -5.189,-2.511 -1.348,-1.674 -2.02,-3.828 -2.02,-6.462 0,-2.633 0.672,-4.787 2.02,-6.461 1.353,-1.674 3.083,-2.511 5.189,-2.511 1.183,0 2.227,0.24 3.136,0.714 0.915,0.469 1.746,1.203 2.5,2.199l0 -0.001zm-3.604 11.06c1.174,0 2.067,-0.427 2.678,-1.284 0.617,-0.854 0.926,-2.092 0.926,-3.716 0,-1.63 -0.309,-2.871 -0.926,-3.728 -0.611,-0.854 -1.504,-1.283 -2.678,-1.283 -1.161,0 -2.051,0.429 -2.668,1.283 -0.611,0.857 -0.915,2.098 -0.915,3.728 0,1.623 0.305,2.862 0.915,3.716 0.617,0.856 1.507,1.284 2.668,1.284z"/>
</symbol>
<symbol id="i" viewBox="-43.861 -111.483 12.7 17.5">
 <path class="fil0" d="M-31.161 -106.416c-0.486,-0.224 -0.966,-0.386 -1.44,-0.491 -0.469,-0.112 -0.943,-0.168 -1.417,-0.168 -1.407,0 -2.489,0.452 -3.248,1.351 -0.753,0.901 -1.127,2.193 -1.127,3.872l0 7.868 -5.468 0 0 -17.086 5.468 0 0 2.801c0.697,-1.116 1.501,-1.931 2.41,-2.444 0.915,-0.514 2.009,-0.77 3.281,-0.77 0.179,0 0.374,0.008 0.592,0.022 0.215,0.017 0.524,0.05 0.926,0.101l0.023 4.944z"/>
</symbol>
<symbol id="m" viewBox="-44.933 -117.175 19.385 23.637">
 <path class="fil0" d="M-25.548 -95.234c-1.08,0.558 -2.207,0.979 -3.382,1.261 -1.169,0.29 -2.385,0.435 -3.649,0.435 -3.794,0 -6.805,-1.06 -9.029,-3.18 -2.218,-2.12 -3.325,-5 -3.325,-8.638 0,-3.639 1.107,-6.518 3.325,-8.638 2.224,-2.121 5.234,-3.181 9.029,-3.181 1.264,0 2.48,0.142 3.649,0.424 1.175,0.285 2.302,0.709 3.382,1.272l0 4.71c-1.094,-0.742 -2.171,-1.286 -3.225,-1.629 -1.058,-0.349 -2.171,-0.525 -3.337,-0.525 -2.098,0 -3.747,0.675 -4.944,2.02 -1.2,1.339 -1.797,3.189 -1.797,5.546 0,2.352 0.597,4.202 1.797,5.547 1.197,1.339 2.846,2.009 4.944,2.009 1.166,0 2.279,-0.17 3.337,-0.514 1.054,-0.348 2.131,-0.895 3.225,-1.64l0 4.721z"/>
</symbol>
 <rect class="fil1" y="-0.001" width="407" height="312"/>
 <g id="Layer_x0020_1">
  <metadata id="CorelCorpID_0Corel-Layer"/>
  <g id="_2304595367824">
   <path class="fil0" d="M277.541 0.261l-148.576 0c-5.372,0 -10.528,2.334 -14.326,6.489 -3.798,4.155 -5.933,9.793 -5.933,15.668l0 265.895c0,5.876 2.134,11.515 5.933,15.668 3.799,4.154 8.955,6.49 14.326,6.49l40.521 -0.001 0 -14.771 -40.521 0c-3.729,0 -6.753,-3.308 -6.753,-7.386l0 -265.895c0,-4.079 3.024,-7.386 6.753,-7.386l148.576 0c1.791,0 3.509,0.778 4.776,2.163 1.266,1.385 1.978,3.264 1.978,5.223l0 265.895c0,1.958 -0.712,3.838 -1.978,5.223 -1.267,1.384 -2.985,2.163 -4.776,2.163l-40.521 0 0 14.771 40.521 0c5.373,0 10.528,-2.334 14.327,-6.489 3.798,-4.154 5.933,-9.793 5.933,-15.668l0 -265.895c0,-5.876 -2.134,-11.514 -5.933,-15.669 -3.799,-4.154 -8.955,-6.489 -14.327,-6.489l0 0.001z"/>
   <path class="fil0" d="M20.911 280.927l74.287 0 0 -14.771 -74.287 0c-3.73,0 -6.754,-3.308 -6.754,-7.386l0 -206.808c0,-4.078 3.024,-7.385 6.754,-7.385l74.287 0 0 -14.772 -74.287 0c-5.373,0 -10.529,2.334 -14.327,6.489 -3.798,4.155 -5.933,9.793 -5.933,15.668l0 206.807c0,5.876 2.134,11.515 5.933,15.669 3.799,4.154 8.955,6.489 14.327,6.489l0 0z"/>
   <polygon class="fil0" points="162.733,37.191 176.24,37.191 176.24,51.962 162.733,51.962 "/>
   <polygon class="fil0" points="189.746,37.191 243.774,37.191 243.774,51.962 189.746,51.962 "/>
   <polygon class="fil0" points="142.473,74.12 155.979,74.12 155.979,103.664 142.473,103.664 "/>
   <polygon class="fil0" points="169.486,74.12 182.993,74.12 182.993,103.664 169.486,103.664 "/>
   <polygon class="fil0" points="196.5,74.12 210.007,74.12 210.007,103.664 196.5,103.664 "/>
   <polygon class="fil0" points="223.513,74.12 237.02,74.12 237.02,103.664 223.513,103.664 "/>
   <polygon class="fil0" points="250.527,74.12 264.034,74.12 264.034,103.664 250.527,103.664 "/>
   <polygon class="fil0" points="196.5,125.822 243.774,125.822 243.774,140.594 196.5,140.594 "/>
   <path class="fil0" d="M182.993 258.77l40.52 0c7.239,0 13.926,-4.224 17.547,-11.079 3.618,-6.855 3.618,-15.303 0,-22.158 -3.621,-6.855 -10.308,-11.079 -17.547,-11.079l-40.52 0c-7.239,0 -13.926,4.224 -17.546,11.079 -3.618,6.855 -3.618,15.303 0,22.158 3.62,6.855 10.307,11.079 17.546,11.079zm0 -29.544l40.52 0c3.73,0 6.754,3.307 6.754,7.386 0,4.078 -3.024,7.386 -6.754,7.386l-40.52 0c-3.729,0 -6.753,-3.308 -6.753,-7.386 0,-4.079 3.024,-7.386 6.753,-7.386z"/>
   <polygon class="fil0" points="74.938,59.348 95.198,59.348 95.198,74.12 74.938,74.12 "/>
   <polygon class="fil0" points="27.664,96.278 41.171,96.278 41.171,118.436 27.664,118.436 "/>
   <polygon class="fil0" points="54.678,96.278 68.185,96.278 68.185,118.436 54.678,118.436 "/>
   <polygon class="fil0" points="81.691,96.278 95.198,96.278 95.198,118.436 81.691,118.436 "/>
   <polygon class="fil0" points="47.924,59.348 61.431,59.348 61.431,74.12 47.924,74.12 "/>
   <path class="fil0" d="M54.678 243.998l40.52 0 0 -14.772 -40.52 0c-3.73,0 -6.754,-3.308 -6.754,-7.386 0,-4.079 3.024,-7.386 6.754,-7.386l40.52 0 0 -14.772 -40.52 0c-7.239,0 -13.926,4.224 -17.546,11.078 -3.618,6.855 -3.618,15.303 0,22.158 3.62,6.855 10.307,11.079 17.546,11.079l0 0.001z"/>
   <path class="fil0" d="M385.596 29.805l-74.288 0 0 14.772 74.288 0c1.791,0 3.509,0.777 4.775,2.163 1.267,1.384 1.978,3.264 1.978,5.222l0 206.807c0,1.959 -0.711,3.838 -1.978,5.223 -1.266,1.385 -2.984,2.163 -4.775,2.163l-74.288 0.001 0 14.771 74.288 0c5.372,0 10.528,-2.334 14.326,-6.489 3.799,-4.154 5.934,-9.793 5.934,-15.668l0 -206.807c0,-5.876 -2.135,-11.514 -5.934,-15.669 -3.799,-4.154 -8.954,-6.489 -14.326,-6.489l0 0z"/>
   <polygon class="fil0" points="311.308,59.348 358.582,59.348 358.582,74.12 311.308,74.12 "/>
   <polygon class="fil0" points="365.336,96.278 378.842,96.278 378.842,118.436 365.336,118.436 "/>
   <polygon class="fil0" points="338.322,96.278 351.829,96.278 351.829,118.436 338.322,118.436 "/>
   <polygon class="fil0" points="311.308,96.278 324.815,96.278 324.815,118.436 311.308,118.436 "/>
   <path class="fil0" d="M311.308 199.682l0 14.771 40.521 0.001c3.729,0 6.753,3.307 6.753,7.386 0,4.078 -3.024,7.386 -6.753,7.386l-40.521 0 0 14.772 40.521 0c7.239,0 13.926,-4.224 17.546,-11.079 3.618,-6.855 3.618,-15.303 0,-22.158 -3.621,-6.855 -10.307,-11.079 -17.546,-11.079l-40.521 0z"/>
   <polygon class="fil0" points="162.733,125.822 182.993,125.822 182.993,140.594 162.733,140.594 "/>
   <polygon class="fil0" points="162.733,155.366 243.774,155.366 243.774,170.138 162.733,170.138 "/>
   <polygon class="fil0" points="176.24,184.91 230.267,184.91 230.267,199.682 176.24,199.682 "/>
   <polygon class="fil0" points="54.678,140.594 95.198,140.594 95.198,155.366 54.678,155.366 "/>
   <polygon class="fil0" points="68.185,170.138 95.198,170.138 95.198,184.91 68.185,184.91 "/>
   <polygon class="fil0" points="311.308,140.594 345.075,140.594 345.075,155.366 311.308,155.366 "/>
   <polygon class="fil0" points="311.308,170.138 331.569,170.138 331.569,184.91 311.308,184.91 "/>
  </g>
 </g>
</svg>
